<svg width="312" height="181" fill="none" xmlns="http://www.w3.org/2000/svg"><circle cx="48.398" cy="1.445" r=".776" fill="#167BF7"/><path d="M122.746 63.83l31.865 6.146 31.78 5.793c16.116 5.121 17.321 21.211 15.909 28.616-1.287 4.926-6.496 15.362-17.038 17.697-10.543 2.334-17.697-1.977-19.956-4.424-1.82-1.946-5.987-8.027-8.095-16.788-2.109-8.761-6.15-10.909-7.907-10.887-1.444-.094-5.403 1.28-9.696 7.53-4.292 6.251-9.131 10.512-11.013 11.861-2.322 1.632-8.83 4.293-16.285 1.883s-12.216-7.929-13.664-10.387c-2.426-3.613-5.823-13.684 0-25.071 5.823-11.387 18.493-12.725 24.1-11.97z" stroke="#167BF7" stroke-linecap="round" stroke-linejoin="round"/><path d="M121.082 69.835l32.809 5.75 29.765 5.3c15.063 5.862 14.394 19.129 12.177 25.029-2.067 3.833-8.095 11.432-15.672 11.162-9.471-.338-12.177-4.848-15.334-12.515-3.156-7.667-4.848-18.49-13.98-20.52-7.306-1.623-15.973 8.72-19.393 14.093-5.772 8.118-13.83 8.569-17.137 7.78-6.013-2.03-16.308-10.473-12.34-23.1 3.969-12.628 14.144-13.505 19.105-12.979z" stroke="#167BF7" stroke-linecap="round" stroke-linejoin="round"/><path d="M107.987 81.945c-.636 1.015-1.289 3.128-1.289 4.333m0 2.734c.413 3.49 3.126 10.677 10.678 11.503m52.568-16.79l11.668 2.302c2.1.493 6.705 2.41 8.327 6.135m1.095 3.177c.366 1.26.804 3.303.387 4.708M117.593 63.477c.821-2.034 4.107-6.079 10.679-5.985l27.81 5.079m32.631 14.168c.469-5.915-4.969-8.88-7.746-9.624l-24.885-4.544m0 0l-1.065 7.151M152.24 100.187c-.057-.952-.75-2.983-3.06-3.575m-4.964 24.278c-2.95-.462-4.38-1.95-4.995-3.427-.676-1.624-.078-3.429.477-5.099l3.277-9.851c.824-2.477 1.832-5.393 4.384-5.942a3.9 3.9 0 011.821.04m-4.964 24.279c1.965.307 3.479.069 4.615-.417 2.491-1.065 2.847-4.184 2.943-6.891l.466-13.162m-8.024 20.47l4.964-24.278M151.621 117.041c2.667-.447 8.548-1.782 10.739-3.543m-32.109-5.101c1.36 1.682 4.972 5.358 8.537 6.604M112.274 111.544l-.994 5.788c-.327 2.503.584 7.795 6.296 10.717 1.303.667 2.745.995 4.183 1.267l4.533.857m51.003-7.325l-.43 2.964c-.256 1.758-.612 3.522-1.458 5.085-.636 1.177-1.482 2.377-2.453 2.984" stroke="#167BF7" stroke-linecap="round" stroke-linejoin="round"/><path d="M158.22 131.236l17.324 3.182c1.511.277 3.041.456 4.575.392 2.721-.113 6.476-.537 8.99-1.675 3.359-1.519 8.597-5.698 10.796-7.597 1.766-2 5.379-7.198 5.699-11.997l11.531-63.598a.929.929 0 01.685-.751c1.82-.435 4.933-.588 6.654 1.39.176.203.233.48.186.744l-11.58 64.31c-.575 3.366-2.915 10.565-7.917 15.491-1.479 1.456-3.062 2.814-4.681 4.112-4.517 3.62-13.095 8.173-23.822 7.348l-19.979-3.746" stroke="#167BF7" stroke-linecap="round" stroke-linejoin="round"/><path d="M134.463 123.484l8.727 1.575 9.449 1.575c2.056.634 6.01 3.162 5.38 8.202-.413 3.304-2.692 5.04-4.891 5.862-1.987.743-4.165.437-6.251.047l-14.775-2.76c-2.166-.241-6.339-2.152-5.709-7.874.63-5.721 5.643-6.802 8.07-6.627zM117.134 122.278c.084-.479.348-.811.685-1.026 1.257-.798 2.802.754 2.056 2.042a1.833 1.833 0 01-.316.416c-1.036 1.019-2.676 0-2.425-1.432zM166.453 132.336c-.071-.98.303-1.529.81-1.804 1.309-.708 2.816.886 2.07 2.174-.033.056-.067.11-.101.161M181.524 134.871l2.176 7.688m2.757-8.269l2.901 6.673m1.306-8.123l3.554 6.383m0-9.212l4.279 6.528m-.725-8.922l4.787 5.73m-1.523-8.703l5.657 4.859m-3.264-8.559l6.166 3.7m-4.352-7.616l6.89 2.176M84.226 66.16l3.026 1.8m1.146-9.162l2.29 2.781m5.154-6.708l2.045 3.436M230.692 7.905c1.455-1.526 3.199-.827 4.041-.166.729.572 1.647 2.556.166 4.152-1.557 1.678-3.569.797-4.207.155-.875-.88-1.347-2.728 0-4.14zM183.89 48.73c2.318-2.432 5.096-1.319 6.438-.265 1.161.91 2.624 4.071.264 6.615-2.481 2.673-5.685 1.269-6.702.246-1.393-1.402-2.146-4.346 0-6.597zM199.082 63.1c1.179-1.236 2.592-.67 3.275-.134.59.464 1.335 2.071.134 3.365-1.262 1.36-2.892.645-3.409.125-.709-.713-1.092-2.21 0-3.355zM244.801 90.261c.902-.947 1.984-.513 2.507-.103.452.355 1.022 1.585.103 2.576-.966 1.04-2.214.494-2.61.096-.543-.546-.836-1.692 0-2.569zM79.723 125.469c-.241-.093-.722-.135-.718.44.006.719.912-.482.718-.44zM187.079 153.867c-.242-.093-.723-.135-.718.44.005.719.912-.482.718-.44zM75.892 144.321c-.149-.211-.525-.514-.841-.033-.395.601 1.026.106.84.033zM98.292 155.79c-.258-.008-.726.111-.532.652.243.677.701-.756.532-.652zM229.872 111.549c-.258-.008-.726.111-.532.652.243.677.701-.756.532-.652zM92.006 142.321c-.259.003-.721.141-.504.674.271.666.668-.786.504-.674zM86.828 119.031c-.229-.659.063-.486.376-.476.134.173.068.489-.073.614-.16.14-.289-.097-.303-.138zM69.711 132.084c-.467-.518-.131-.472.162-.585.19.107.252.425.17.594-.091.192-.303.023-.332-.009z" stroke="#167BF7" stroke-linecap="round" stroke-linejoin="round"/><path d="M139.281 128.13c3.086-2.157 5.892-.318 7.133 1.137 1.073 1.258 1.981 5.054-1.176 7.326-3.318 2.388-6.527.135-7.418-1.215-1.221-1.848-1.396-5.25 1.461-7.248z" stroke="#167BF7" stroke-linecap="round" stroke-linejoin="round"/><path fill-rule="evenodd" clip-rule="evenodd" d="M143.098 132.714c-.115.083-.251.089-.382.103-.296.031-.594.051-.886.093-.131.018-.267.06-.377.122-.239.136-.295.358-.285.605.009.25.148.414.404.512.218.083.448.128.681.136.264.008.46-.085.565-.302.041-.086.07-.179.089-.272.061-.295.114-.591.169-.887l.022-.109v-.001zm.847.142c-.087.429-.166.86-.262 1.287-.064.285-.203.533-.501.677-.18.087-.375.14-.58.146-.622.02-1.218-.098-1.763-.405a1.239 1.239 0 01-.422-.389.834.834 0 01-.127-.599 5.42 5.42 0 01.12-.604c.095-.369.432-.703.897-.751.479-.049.958-.103 1.439-.147.535-.048.65-.461.569-.806-.039-.17-.19-.281-.359-.358a1.756 1.756 0 00-.731-.156c-.291-.001-.495.133-.582.379-.029.081-.071.106-.166.084-.191-.043-.385-.078-.577-.118-.11-.023-.121-.04-.104-.139.049-.281.157-.532.422-.698.235-.148.504-.21.797-.2.494.015.975.1 1.43.297.426.184.711.471.769.903a1.03 1.03 0 01-.014.318c-.08.427-.169.853-.255 1.279z" fill="#167BF7"/><path d="M1 158.895s43.068-1.761 47.94-4.289c0 0 16.525 1.264 19.278 5.057 0 0 38.625 11.062 48.547 5.374 0 0 7.789 0 9.072-3.162 0 0 14.532 5.08 16.651-1.241 0 0 7.051 5.91 15.332 2.432 0 0 8.6-4.667 10.874-1.507 0 0 63.628 9.515 75.706-3.443 0 0 60.667-4.729 66.6.779" stroke="#167BF7" stroke-miterlimit="10"/><path d="M143.95 173.141c-.299-.119-.782.387-.885.928-.102.542.243 1.371.646 1.498.333.107.784-.37.883-.932.102-.593-.214-1.332-.644-1.494zM215.82 173.71c-.126 1.023.486 1.916 1.083 1.778.143-.056.265-.189.34-.37.206-.504.054-.97-.147-1.399-.181-.392-.469-.598-.779-.485-.212.08-.386.363-.497.476zM171.046 178.106c-.254.181-.512.267-.664.497-.385.58-.421 1.501-.06 1.905a.614.614 0 00.328.156.551.551 0 00.343-.07c.227-.16.402-.438.488-.777a1.956 1.956 0 00-.026-1.041c-.07-.236-.244-.408-.409-.67zM174.464 177.883a1.59 1.59 0 00-.043.463c.009.157.04.31.093.448.052.139.124.26.211.357a.733.733 0 00.294.204c.167.06.344.035.499-.07a.972.972 0 00.353-.508c.185-.681-.074-1.544-.517-1.734-.341-.146-.754.244-.89.84zM85.797 168.741c-.106.787-.038 1.349.34 1.671.21.156.45.2.681.126.262-.092.34-.461.287-.847a11.339 11.339 0 00-.125-.821c-.093-.43-.283-.837-.613-.726-.24.083-.435.448-.57.597zM70.508 173.858c.066.131.133.404.253.462a.527.527 0 00.48-.102.442.442 0 00.184-.25.692.692 0 00.016-.361c-.066-.281-.25-.309-.427-.276-.201.039-.398.105-.506.527zM148.052 173.858c.065.131.133.404.252.462a.528.528 0 00.481-.102.443.443 0 00.184-.25.69.69 0 00.015-.361c-.065-.281-.249-.309-.427-.276-.201.039-.397.105-.505.527zM229.529 173.858c.066.131.133.404.252.462a.53.53 0 00.482-.102.443.443 0 00.184-.25.7.7 0 00.016-.361c-.066-.281-.25-.309-.428-.276-.198.039-.392.105-.506.527zM256.56 170.491c.066.129.133.402.252.462.164.047.334.01.482-.103a.44.44 0 00.184-.25.69.69 0 00.014-.361c-.066-.28-.248-.309-.426-.275-.201.039-.398.107-.506.527zM260.224 165.588c.065.129.132.404.252.462a.533.533 0 00.481-.102.44.44 0 00.184-.25.69.69 0 00.016-.361c-.066-.281-.25-.31-.428-.276-.2.039-.398.105-.505.527zM67.321 170.606c-.303-.144-.719.199-.825.682-.107.483.079 1.068.396 1.224.168.07.347.056.508-.038a.936.936 0 00.38-.48c.159-.449-.096-1.217-.459-1.388zM44.712 167.249c.137-.919-.133-1.616-.552-1.68-.278-.049-.574.297-.634.738-.105.774.159 1.516.567 1.455.248-.042.47-.38.619-.513zM222.383 176.119a.635.635 0 00-.647.068c-.202.141-.357.389-.433.69-.089.367.102.853.397 1.007.43.221.833 0 .997-.531.161-.51.016-1.079-.314-1.234zM252.775 164.668a.637.637 0 00-.648.069c-.201.142-.356.389-.432.691-.091.367.101.853.397 1.005.43.221.832 0 .997-.53.154-.511.01-1.078-.314-1.235z" fill="#167BF7"/></svg>